<svg width="340" height="68" viewBox="0 0 340 68" fill="none" xmlns="http://www.w3.org/2000/svg">
<mask id="mask0_236_43" style="mask-type:alpha" maskUnits="userSpaceOnUse" x="14" y="14" width="327" height="54">
<rect x="14.0005" y="68" width="54" height="326" transform="rotate(-90 14.0005 68)" fill="#D9D9D9"/>
</mask>
<g mask="url(#mask0_236_43)">
<line x1="417.604" y1="66.3966" x2="-94.4989" y2="-445.706" stroke="#230CEB"/>
<line x1="421.413" y1="62.5871" x2="-90.6898" y2="-449.516" stroke="#230CEB"/>
<line x1="425.223" y1="58.7777" x2="-86.8803" y2="-453.325" stroke="#230CEB"/>
<line x1="429.032" y1="54.9682" x2="-83.0707" y2="-457.135" stroke="#230CEB"/>
<line x1="432.842" y1="51.1587" x2="-79.2611" y2="-460.944" stroke="#230CEB"/>
<line x1="436.651" y1="47.3493" x2="-75.4515" y2="-464.754" stroke="#230CEB"/>
<line x1="440.46" y1="43.5397" x2="-71.6425" y2="-468.563" stroke="#230CEB"/>
<line x1="444.27" y1="39.7303" x2="-67.8329" y2="-472.372" stroke="#230CEB"/>
<line x1="448.08" y1="35.9208" x2="-64.0233" y2="-476.182" stroke="#230CEB"/>
<line x1="451.889" y1="32.1113" x2="-60.2137" y2="-479.991" stroke="#230CEB"/>
<line x1="455.699" y1="28.3019" x2="-56.4042" y2="-483.801" stroke="#230CEB"/>
<line x1="459.508" y1="24.4924" x2="-52.5951" y2="-487.61" stroke="#230CEB"/>
<line x1="463.317" y1="20.6829" x2="-48.7855" y2="-491.42" stroke="#230CEB"/>
<line x1="467.127" y1="16.8734" x2="-44.976" y2="-495.229" stroke="#230CEB"/>
<line x1="154.75" y1="329.251" x2="-357.353" y2="-182.852" stroke="#230CEB"/>
<line x1="158.559" y1="325.441" x2="-353.544" y2="-186.662" stroke="#230CEB"/>
<line x1="162.369" y1="321.632" x2="-349.734" y2="-190.471" stroke="#230CEB"/>
<line x1="166.178" y1="317.822" x2="-345.925" y2="-194.281" stroke="#230CEB"/>
<line x1="169.988" y1="314.013" x2="-342.115" y2="-198.09" stroke="#230CEB"/>
<line x1="173.797" y1="310.203" x2="-338.306" y2="-201.899" stroke="#230CEB"/>
<line x1="177.607" y1="306.394" x2="-334.496" y2="-205.709" stroke="#230CEB"/>
<line x1="181.416" y1="302.584" x2="-330.687" y2="-209.518" stroke="#230CEB"/>
<line x1="185.226" y1="298.775" x2="-326.877" y2="-213.328" stroke="#230CEB"/>
<line x1="189.035" y1="294.965" x2="-323.068" y2="-217.137" stroke="#230CEB"/>
<line x1="192.844" y1="291.156" x2="-319.258" y2="-220.947" stroke="#230CEB"/>
<line x1="196.654" y1="287.346" x2="-315.449" y2="-224.756" stroke="#230CEB"/>
<line x1="200.463" y1="283.537" x2="-311.64" y2="-228.566" stroke="#230CEB"/>
<line x1="204.273" y1="279.728" x2="-307.83" y2="-232.375" stroke="#230CEB"/>
<line x1="208.082" y1="275.918" x2="-304.02" y2="-236.185" stroke="#230CEB"/>
<line x1="211.892" y1="272.109" x2="-300.211" y2="-239.994" stroke="#230CEB"/>
<line x1="215.701" y1="268.299" x2="-296.401" y2="-243.804" stroke="#230CEB"/>
<line x1="219.511" y1="264.49" x2="-292.592" y2="-247.613" stroke="#230CEB"/>
<line x1="223.32" y1="260.68" x2="-288.783" y2="-251.423" stroke="#230CEB"/>
<line x1="227.13" y1="256.871" x2="-284.973" y2="-255.232" stroke="#230CEB"/>
<line x1="230.939" y1="253.061" x2="-281.164" y2="-259.042" stroke="#230CEB"/>
<line x1="234.749" y1="249.252" x2="-277.354" y2="-262.851" stroke="#230CEB"/>
<line x1="238.558" y1="245.442" x2="-273.545" y2="-266.661" stroke="#230CEB"/>
<line x1="242.368" y1="241.633" x2="-269.735" y2="-270.47" stroke="#230CEB"/>
<line x1="246.177" y1="237.823" x2="-265.926" y2="-274.28" stroke="#230CEB"/>
<line x1="249.987" y1="234.014" x2="-262.116" y2="-278.089" stroke="#230CEB"/>
<line x1="253.796" y1="230.204" x2="-258.307" y2="-281.899" stroke="#230CEB"/>
<line x1="257.606" y1="226.395" x2="-254.497" y2="-285.708" stroke="#230CEB"/>
<line x1="261.415" y1="222.585" x2="-250.688" y2="-289.517" stroke="#230CEB"/>
<line x1="265.225" y1="218.776" x2="-246.878" y2="-293.327" stroke="#230CEB"/>
<line x1="269.034" y1="214.966" x2="-243.069" y2="-297.136" stroke="#230CEB"/>
<line x1="272.843" y1="211.157" x2="-239.259" y2="-300.946" stroke="#230CEB"/>
<line x1="276.653" y1="207.347" x2="-235.45" y2="-304.755" stroke="#230CEB"/>
<line x1="280.462" y1="203.538" x2="-231.641" y2="-308.565" stroke="#230CEB"/>
<line x1="284.272" y1="199.728" x2="-227.831" y2="-312.374" stroke="#230CEB"/>
<line x1="288.082" y1="195.919" x2="-224.021" y2="-316.184" stroke="#230CEB"/>
<line x1="291.891" y1="192.109" x2="-220.212" y2="-319.993" stroke="#230CEB"/>
<line x1="295.7" y1="188.3" x2="-216.402" y2="-323.803" stroke="#230CEB"/>
<line x1="299.51" y1="184.491" x2="-212.593" y2="-327.612" stroke="#230CEB"/>
<line x1="303.319" y1="180.681" x2="-208.784" y2="-331.422" stroke="#230CEB"/>
<line x1="307.129" y1="176.872" x2="-204.974" y2="-335.231" stroke="#230CEB"/>
<line x1="310.938" y1="173.062" x2="-201.164" y2="-339.041" stroke="#230CEB"/>
<line x1="314.748" y1="169.253" x2="-197.355" y2="-342.85" stroke="#230CEB"/>
<line x1="318.557" y1="165.443" x2="-193.546" y2="-346.66" stroke="#230CEB"/>
<line x1="322.367" y1="161.634" x2="-189.736" y2="-350.469" stroke="#230CEB"/>
<line x1="326.176" y1="157.824" x2="-185.927" y2="-354.279" stroke="#230CEB"/>
<line x1="329.986" y1="154.015" x2="-182.117" y2="-358.088" stroke="#230CEB"/>
<line x1="333.795" y1="150.205" x2="-178.307" y2="-361.898" stroke="#230CEB"/>
<line x1="337.604" y1="146.396" x2="-174.498" y2="-365.707" stroke="#230CEB"/>
<line x1="341.414" y1="142.586" x2="-170.689" y2="-369.517" stroke="#230CEB"/>
<line x1="345.224" y1="138.777" x2="-166.879" y2="-373.326" stroke="#230CEB"/>
<line x1="349.033" y1="134.967" x2="-163.07" y2="-377.135" stroke="#230CEB"/>
<line x1="352.843" y1="131.158" x2="-159.26" y2="-380.945" stroke="#230CEB"/>
<line x1="356.652" y1="127.348" x2="-155.451" y2="-384.754" stroke="#230CEB"/>
<line x1="360.461" y1="123.539" x2="-151.641" y2="-388.564" stroke="#230CEB"/>
<line x1="364.271" y1="119.729" x2="-147.832" y2="-392.373" stroke="#230CEB"/>
<line x1="368.081" y1="115.92" x2="-144.022" y2="-396.183" stroke="#230CEB"/>
<line x1="371.89" y1="112.11" x2="-140.213" y2="-399.992" stroke="#230CEB"/>
<line x1="375.7" y1="108.301" x2="-136.403" y2="-403.802" stroke="#230CEB"/>
<line x1="379.509" y1="104.491" x2="-132.594" y2="-407.611" stroke="#230CEB"/>
<line x1="383.318" y1="100.682" x2="-128.785" y2="-411.421" stroke="#230CEB"/>
<line x1="387.128" y1="96.8725" x2="-124.975" y2="-415.23" stroke="#230CEB"/>
<line x1="390.937" y1="93.063" x2="-121.165" y2="-419.04" stroke="#230CEB"/>
<line x1="394.747" y1="89.2535" x2="-117.356" y2="-422.849" stroke="#230CEB"/>
<line x1="398.556" y1="85.4441" x2="-113.547" y2="-426.659" stroke="#230CEB"/>
<line x1="402.366" y1="81.6346" x2="-109.737" y2="-430.468" stroke="#230CEB"/>
<line x1="406.175" y1="77.8251" x2="-105.928" y2="-434.278" stroke="#230CEB"/>
<line x1="409.985" y1="74.0156" x2="-102.118" y2="-438.087" stroke="#230CEB"/>
<line x1="413.794" y1="70.2061" x2="-98.3085" y2="-441.897" stroke="#230CEB"/>
</g>
<rect x="0.000488281" width="321.667" height="50" fill="#EE2C2C"/>
<path d="M28.8614 28.3924H19.8047L18.2385 37.3809H12.0759L16.4 12.8667H33.4919L32.5385 18.1781H21.5752L20.724 23.0809H29.7807L28.8614 28.3924Z" fill="white"/>
<path d="M49.4453 35.6105C47.6521 37.1086 45.1099 37.8576 41.8187 37.8576C38.5274 37.8576 36.2462 37.0972 34.9751 35.5764C34.0671 34.5323 33.6132 33.0909 33.6132 31.2524C33.6132 30.4352 33.704 29.5386 33.8856 28.5626L36.6434 12.8667H42.772L40.0141 28.4264C39.9233 28.9939 39.8779 29.584 39.8779 30.1969C39.8779 31.7858 40.8313 32.5802 42.7379 32.5802C43.8729 32.5802 44.7808 32.2852 45.4617 31.695C46.1427 31.1048 46.6194 30.0153 46.8917 28.4264L49.6496 12.8667H55.7782L53.0203 28.5626C52.4529 31.7404 51.2612 34.0897 49.4453 35.6105Z" fill="white"/>
<path d="M80.3744 18.1781H71.9987L68.628 37.3809H62.4653L65.8361 18.1781H57.4263L58.3796 12.8667H81.3277L80.3744 18.1781Z" fill="white"/>
<path d="M96.693 35.6105C94.8999 37.1086 92.3576 37.8576 89.0664 37.8576C85.7751 37.8576 83.4939 37.0972 82.2228 35.5764C81.3149 34.5323 80.8609 33.0909 80.8609 31.2524C80.8609 30.4352 80.9517 29.5386 81.1333 28.5626L83.8911 12.8667H90.0197L87.2618 28.4264C87.1711 28.9939 87.1257 29.584 87.1257 30.1969C87.1257 31.7858 88.079 32.5802 89.9857 32.5802C91.1206 32.5802 92.0285 32.2852 92.7095 31.695C93.3904 31.1048 93.8671 30.0153 94.1395 28.4264L96.8973 12.8667H103.026L100.268 28.5626C99.7006 31.7404 98.5089 34.0897 96.693 35.6105Z" fill="white"/>
<path d="M117.544 12.8667C120.132 12.8667 121.97 13.4341 123.06 14.569C123.877 15.4316 124.285 16.5211 124.285 17.8376C124.285 18.2916 124.24 18.7682 124.149 19.2676L123.673 21.9233C123.4 23.3987 122.924 24.5904 122.243 25.4983C121.584 26.4063 120.847 27.0532 120.029 27.439L123.128 37.3809H116.25L113.39 28.2221H111.279L109.883 37.3809H103.346L107.67 12.8667H117.544ZM115.399 18.1781H112.845L111.96 24.1024H114.344C115.547 24.1024 116.409 23.8186 116.931 23.2512C117.453 22.661 117.714 21.8893 117.714 20.9359C117.714 19.0974 116.943 18.1781 115.399 18.1781Z" fill="white"/>
<path d="M142.782 37.3809H125.69L130.014 12.8667H147.106L146.153 18.1781H135.189L134.406 22.7745H143.463L142.509 28.0859H133.453L132.772 32.0695H143.735L142.782 37.3809Z" fill="white"/>
<path d="M153.207 30.4012C153.207 31.9674 154.33 32.7505 156.577 32.7505C158.847 32.7505 159.982 32.0468 159.982 30.6395C159.982 29.8905 159.596 29.2776 158.825 28.8009C158.053 28.3243 157.111 27.9271 155.999 27.6093C154.909 27.2915 153.808 26.9283 152.696 26.5198C151.607 26.0885 150.676 25.4302 149.904 24.545C149.132 23.6371 148.747 22.5135 148.747 21.1743C148.747 15.477 152.412 12.6283 159.744 12.6283C162.422 12.6283 164.442 13.139 165.804 14.1605C167.189 15.1592 167.881 16.5552 167.881 18.3483C167.881 19.0066 167.79 19.6421 167.609 20.255C167.45 20.8452 167.28 21.2651 167.098 21.5148L166.826 21.9233H160.799C161.299 21.4013 161.548 20.743 161.548 19.9486C161.548 18.4732 160.584 17.7355 158.654 17.7355C156.226 17.7355 155.011 18.5072 155.011 20.0507C155.011 20.8225 155.397 21.4353 156.169 21.8893C156.941 22.3432 157.871 22.7064 158.961 22.9788C160.073 23.2285 161.185 23.5463 162.297 23.9321C163.41 24.318 164.352 24.9649 165.123 25.8729C165.895 26.7581 166.281 27.9157 166.281 29.3457C166.281 32.2284 165.419 34.3734 163.693 35.7807C161.968 37.1653 159.313 37.8576 155.726 37.8576C152.14 37.8576 149.689 37.2221 148.372 35.9509C147.396 34.9976 146.908 33.6811 146.908 32.0014C146.908 31.3659 146.976 30.6736 147.112 29.9245L147.214 29.3798H153.343L153.275 29.7883C153.229 30.0153 153.207 30.2196 153.207 30.4012Z" fill="white"/>
<path d="M180.29 29.9245H176.238L174.91 37.3809H168.781L173.105 12.8667H183.49C186.055 12.8667 187.882 13.4568 188.972 14.6371C189.766 15.5451 190.163 16.7027 190.163 18.11C190.163 18.5867 190.118 19.086 190.027 19.6081L189.346 23.4555C189.006 25.3394 188.007 26.8943 186.35 28.12C184.693 29.323 182.673 29.9245 180.29 29.9245ZM181.345 18.1781H178.281L177.157 24.6131H180.187C182.049 24.6131 183.127 23.7846 183.422 22.1276L183.66 20.7317C183.706 20.5274 183.728 20.255 183.728 19.9145C183.728 19.574 183.558 19.1995 183.218 18.7909C182.877 18.3824 182.253 18.1781 181.345 18.1781Z" fill="white"/>
<path d="M203.738 12.6283C209.208 12.6283 211.943 14.8641 211.943 19.3357C211.943 20.0848 211.864 20.8906 211.705 21.7531L210.513 28.5626C209.969 31.7177 208.788 34.0556 206.972 35.5764C205.157 37.0972 202.603 37.8576 199.312 37.8576C196.021 37.8576 193.728 37.0972 192.434 35.5764C191.549 34.5323 191.106 33.0909 191.106 31.2524C191.106 30.4352 191.197 29.5386 191.379 28.5626L192.57 21.7531C193.637 15.6699 197.36 12.6283 203.738 12.6283ZM200.231 32.5802C201.366 32.5802 202.274 32.2852 202.955 31.695C203.636 31.1048 204.112 30.0153 204.385 28.4264L205.542 21.8893C205.611 21.4353 205.645 21.0267 205.645 20.6636C205.645 18.825 204.714 17.9057 202.853 17.9057C200.515 17.9511 199.119 19.279 198.665 21.8893L197.507 28.4264C197.416 28.9939 197.371 29.584 197.371 30.1969C197.371 31.7858 198.324 32.5802 200.231 32.5802Z" fill="white"/>
<path d="M223.556 12.8667L219.266 37.3809H213.103L217.427 12.8667H223.556Z" fill="white"/>
<path d="M239.601 37.3809H224.076L228.4 12.8667H234.528L231.157 32.0695H240.555L239.601 37.3809Z" fill="white"/>
<path d="M259.422 37.3809H242.33L246.654 12.8667H263.746L262.792 18.1781H251.829L251.046 22.7745H260.102L259.149 28.0859H250.092L249.412 32.0695H260.375L259.422 37.3809Z" fill="white"/>
<path d="M277.541 12.8667C280.129 12.8667 281.967 13.4341 283.057 14.569C283.874 15.4316 284.283 16.5211 284.283 17.8376C284.283 18.2916 284.237 18.7682 284.146 19.2676L283.67 21.9233C283.397 23.3987 282.921 24.5904 282.24 25.4983C281.582 26.4063 280.844 27.0532 280.027 27.439L283.125 37.3809H276.247L273.387 28.2221H271.276L269.88 37.3809H263.343L267.667 12.8667H277.541ZM275.396 18.1781H272.843L271.957 24.1024H274.341C275.544 24.1024 276.406 23.8186 276.928 23.2512C277.45 22.661 277.711 21.8893 277.711 20.9359C277.711 19.0974 276.94 18.1781 275.396 18.1781Z" fill="white"/>
<path d="M292.19 30.4012C292.19 31.9674 293.314 32.7505 295.561 32.7505C297.831 32.7505 298.966 32.0468 298.966 30.6395C298.966 29.8905 298.58 29.2776 297.808 28.8009C297.036 28.3243 296.094 27.9271 294.982 27.6093C293.893 27.2915 292.792 26.9283 291.679 26.5198C290.59 26.0885 289.659 25.4302 288.888 24.545C288.116 23.6371 287.73 22.5135 287.73 21.1743C287.73 15.477 291.396 12.6283 298.727 12.6283C301.406 12.6283 303.426 13.139 304.788 14.1605C306.172 15.1592 306.865 16.5552 306.865 18.3483C306.865 19.0066 306.774 19.6421 306.592 20.255C306.433 20.8452 306.263 21.2651 306.082 21.5148L305.809 21.9233H299.783C300.282 21.4013 300.532 20.743 300.532 19.9486C300.532 18.4732 299.567 17.7355 297.638 17.7355C295.209 17.7355 293.995 18.5072 293.995 20.0507C293.995 20.8225 294.381 21.4353 295.152 21.8893C295.924 22.3432 296.855 22.7064 297.944 22.9788C299.056 23.2285 300.169 23.5463 301.281 23.9321C302.393 24.318 303.335 24.9649 304.107 25.8729C304.879 26.7581 305.264 27.9157 305.264 29.3457C305.264 32.2284 304.402 34.3734 302.677 35.7807C300.952 37.1653 298.296 37.8576 294.71 37.8576C291.123 37.8576 288.672 37.2221 287.355 35.9509C286.379 34.9976 285.891 33.6811 285.891 32.0014C285.891 31.3659 285.959 30.6736 286.096 29.9245L286.198 29.3798H292.326L292.258 29.7883C292.213 30.0153 292.19 30.2196 292.19 30.4012Z" fill="white"/>
<path d="M145.953 25.9524H307.144V30H145.953V25.9524Z" fill="#230CEB"/>
</svg>
